<svg width="185" height="43" viewBox="0 0 185 43" fill="none" xmlns="http://www.w3.org/2000/svg">
<path d="M35.04 42.5573H9.08133C4.06533 42.5573 0 38.492 0 33.476V9.08133C0 4.06533 4.06533 1.26505e-06 9.08133 1.26505e-06H33.476C38.4907 1.26505e-06 42.5573 4.06533 42.5573 9.08133V35.04C42.5573 39.192 39.192 42.5573 35.04 42.5573Z" fill="#1D1D1B"/>
<path d="M31.1744 23.3872L22.1224 32.5005C21.3611 33.2672 20.4877 34.1419 19.2104 34.6285C13.3424 36.8605 8.55706 32.1392 11.0237 26.9565C11.5584 28.6059 13.7731 29.4872 16.1904 28.3832C16.7424 28.1312 17.2304 27.7539 17.6584 27.3232L26.3384 18.5845C29.1064 16.0605 33.5984 20.1565 31.1744 23.3872Z" fill="white"/>
<path d="M11.5488 19.1699L20.6008 10.0565C21.3621 9.28986 22.2355 8.4152 23.5128 7.92853C29.0795 5.80986 33.4968 9.95386 31.8461 14.8099C31.8421 14.8192 31.7728 15.1019 31.7661 15.0939C30.3941 13.4552 27.3941 13.2579 25.4528 14.8432L16.3848 23.9725C13.6168 26.4965 9.1248 22.4005 11.5488 19.1699Z" fill="white"/>
<path d="M66.8411 31.8829C65.6264 33.0496 63.9011 33.6336 61.6651 33.6336C60.3677 33.6336 59.2971 33.4189 58.4544 32.9909C57.6131 32.5616 57.1931 31.8123 57.1931 30.7403C57.1931 30.2883 57.2584 29.8949 57.3917 29.5616C57.5224 29.2283 57.6731 28.9669 57.8424 28.7763C58.2744 28.8709 58.6771 28.9483 59.0504 29.0083C59.4224 29.0683 59.8131 29.0976 60.2224 29.0976C62.0744 29.0976 62.9997 28.1456 62.9997 26.2403V11.4176C63.2637 11.3696 63.6424 11.3096 64.1357 11.2376C64.6291 11.1669 65.1157 11.1309 65.5957 11.1309C66.6784 11.1309 67.4597 11.3096 67.9411 11.6669C68.4211 12.0243 68.6624 12.7269 68.6624 13.7736V26.9176C68.6624 29.0616 68.0544 30.7163 66.8411 31.8829Z" fill="#1D1D1B"/>
<path d="M81.3216 19.7029C80.1909 19.7029 79.3136 20.1203 78.6883 20.9536C78.0629 21.7869 77.7509 22.9776 77.7509 24.5256C77.7509 26.1203 78.0576 27.3296 78.6709 28.1509C79.2843 28.9723 80.1669 29.3829 81.3216 29.3829C82.4763 29.3829 83.3589 28.9669 83.9736 28.1336C84.5856 27.2989 84.8923 26.0976 84.8923 24.5256C84.8923 23.0016 84.5803 21.8176 83.9549 20.9723C83.3296 20.1256 82.4523 19.7029 81.3216 19.7029ZM90.5189 24.5256C90.5189 25.9309 90.3029 27.1989 89.8696 28.3296C89.4376 29.4603 88.8176 30.4189 88.0123 31.2043C87.2069 31.9896 86.2389 32.5976 85.1083 33.0256C83.9789 33.4549 82.7163 33.6696 81.3216 33.6696C79.9269 33.6696 78.6589 33.4603 77.5163 33.0443C76.3736 32.6269 75.4003 32.0269 74.5949 31.2403C73.7896 30.4549 73.1709 29.4963 72.7376 28.3643C72.3056 27.2336 72.0883 25.9536 72.0883 24.5256C72.0883 23.1443 72.3109 21.8883 72.7563 20.7576C73.2003 19.6269 73.8256 18.6683 74.6309 17.8816C75.4363 17.0963 76.4096 16.4896 77.5523 16.0603C78.6949 15.6323 79.9509 15.4176 81.3216 15.4176C82.6923 15.4176 83.9429 15.6323 85.0723 16.0603C86.2029 16.4896 87.1709 17.1016 87.9763 17.8989C88.7816 18.6976 89.4069 19.6563 89.8523 20.7749C90.2963 21.8949 90.5189 23.1443 90.5189 24.5256Z" fill="#1D1D1B"/>
<path d="M101.879 19.7029C101.326 19.7029 100.827 19.7816 100.383 19.9349C99.9365 20.0909 99.5232 20.2869 99.1392 20.5243V28.7043C99.4272 28.8949 99.7872 29.0496 100.221 29.1683C100.653 29.2883 101.158 29.3469 101.735 29.3469C102.938 29.3469 103.894 28.9429 104.603 28.1336C105.311 27.3243 105.666 26.1096 105.666 24.4896C105.666 22.8229 105.325 21.6096 104.639 20.8469C103.954 20.0843 103.034 19.7029 101.879 19.7029ZM102.89 15.4176C104.067 15.4176 105.174 15.6083 106.207 15.9883C107.242 16.3696 108.138 16.9416 108.895 17.7029C109.651 18.4656 110.247 19.4123 110.681 20.5429C111.113 21.6736 111.33 22.9896 111.33 24.4896C111.33 25.9896 111.101 27.3109 110.643 28.4549C110.187 29.5976 109.545 30.5563 108.714 31.3296C107.885 32.1029 106.887 32.6869 105.721 33.0803C104.555 33.4736 103.25 33.6696 101.807 33.6696C100.293 33.6696 98.9939 33.4909 97.9125 33.1336C96.8299 32.7763 95.9285 32.3483 95.2072 31.8469C94.1725 31.1576 93.6565 30.2523 93.6565 29.1336V9.88026C93.9205 9.8096 94.2699 9.7376 94.7019 9.6656C95.1352 9.59493 95.6152 9.55893 96.1445 9.55893C97.2272 9.55893 98.0019 9.7376 98.4712 10.0949C98.9392 10.4523 99.1752 11.1309 99.1752 12.1309V16.2029C99.6552 15.9883 100.209 15.8043 100.834 15.6496C101.458 15.4949 102.145 15.4176 102.89 15.4176Z" fill="#1D1D1B"/>
<path d="M132.826 33.3832C131.744 33.3832 130.968 33.2112 130.499 32.8659C130.031 32.5205 129.795 31.8472 129.795 30.8472V9.88052C130.036 9.80986 130.379 9.73786 130.824 9.66586C131.268 9.59519 131.755 9.55919 132.284 9.55919C133.343 9.55919 134.112 9.73786 134.592 10.0952C135.074 10.4525 135.315 11.1312 135.315 12.1312V33.0979C135.05 33.1685 134.7 33.2339 134.268 33.2939C133.835 33.3539 133.354 33.3832 132.826 33.3832ZM119.698 17.2032H125.828C125.948 17.4419 126.075 17.7392 126.207 18.0965C126.339 18.4539 126.406 18.8472 126.406 19.2739C126.406 20.0365 126.231 20.5845 125.883 20.9179C125.534 21.2512 125.083 21.4179 124.53 21.4179H119.95V33.0979C119.708 33.1685 119.372 33.2339 118.94 33.2939C118.507 33.3539 118.026 33.3832 117.498 33.3832C116.415 33.3832 115.634 33.2112 115.152 32.8659C114.671 32.5205 114.431 31.8472 114.431 30.8472V15.6672C114.431 14.5005 114.63 13.4885 115.026 12.6312C115.423 11.7739 115.97 11.0779 116.667 10.5419C117.364 10.0059 118.182 9.60719 119.12 9.34453C120.058 9.08319 121.068 8.95253 122.15 8.95253C123.856 8.95253 125.126 9.17253 125.955 9.61253C126.784 10.0539 127.199 10.7739 127.199 11.7739C127.199 12.2259 127.108 12.6259 126.928 12.9712C126.748 13.3165 126.538 13.5845 126.298 13.7739C125.84 13.6312 125.354 13.5125 124.836 13.4165C124.319 13.3219 123.738 13.2739 123.087 13.2739C121.98 13.2739 121.14 13.4699 120.563 13.8632C119.986 14.2565 119.698 14.9165 119.698 15.8459V17.2032Z" fill="#1D1D1B"/>
<path d="M147.793 19.7029C146.663 19.7029 145.785 20.1203 145.16 20.9536C144.535 21.7869 144.223 22.9776 144.223 24.5256C144.223 26.1203 144.529 27.3296 145.143 28.1509C145.756 28.9723 146.639 29.3829 147.793 29.3829C148.948 29.3829 149.831 28.9669 150.445 28.1336C151.057 27.2989 151.364 26.0976 151.364 24.5256C151.364 23.0016 151.052 21.8176 150.427 20.9723C149.801 20.1256 148.924 19.7029 147.793 19.7029ZM156.991 24.5256C156.991 25.9309 156.775 27.1989 156.341 28.3296C155.909 29.4603 155.289 30.4189 154.484 31.2043C153.679 31.9896 152.711 32.5976 151.58 33.0256C150.451 33.4549 149.188 33.6696 147.793 33.6696C146.399 33.6696 145.131 33.4603 143.988 33.0443C142.845 32.6269 141.872 32.0269 141.067 31.2403C140.261 30.4549 139.643 29.4963 139.209 28.3643C138.777 27.2336 138.56 25.9536 138.56 24.5256C138.56 23.1443 138.783 21.8883 139.228 20.7576C139.672 19.6269 140.297 18.6683 141.103 17.8816C141.908 17.0963 142.881 16.4896 144.024 16.0603C145.167 15.6323 146.423 15.4176 147.793 15.4176C149.164 15.4176 150.415 15.6323 151.544 16.0603C152.675 16.4896 153.643 17.1016 154.448 17.8989C155.253 18.6976 155.879 19.6563 156.324 20.7749C156.768 21.8949 156.991 23.1443 156.991 24.5256Z" fill="#1D1D1B"/>
<path d="M172.03 22.9177C171.814 23.7991 171.572 24.7044 171.308 25.6324C171.044 26.5617 170.779 27.4671 170.515 28.3471C170.251 29.2284 169.998 30.0391 169.758 30.7764C169.518 31.5137 169.324 32.1217 169.18 32.5977C168.531 33.1684 167.496 33.4551 166.079 33.4551C165.214 33.4551 164.455 33.3351 163.807 33.0977C163.158 32.8604 162.724 32.5031 162.508 32.0257C162.243 31.4537 161.931 30.5497 161.571 29.3124C161.21 28.0737 160.855 26.7164 160.506 25.2404C160.158 23.7631 159.827 22.2631 159.515 20.7391C159.202 19.2151 158.95 17.8817 158.756 16.7391C159.046 16.4297 159.448 16.1617 159.966 15.9351C160.482 15.7084 161.042 15.5951 161.643 15.5951C162.412 15.5951 163.038 15.7684 163.518 16.1137C163.999 16.4591 164.299 17.0484 164.42 17.8817C164.659 19.5484 164.871 20.9764 165.051 22.1671C165.231 23.3591 165.394 24.3711 165.538 25.2031C165.682 26.0377 165.808 26.7097 165.916 27.2217C166.024 27.7351 166.103 28.1337 166.151 28.4177H166.295C166.391 28.0377 166.535 27.4671 166.728 26.7044C166.92 25.9431 167.148 25.0791 167.414 24.1151C167.678 23.1497 167.96 22.1137 168.26 21.0071C168.562 19.9004 168.856 18.7871 169.144 17.6684C169.554 17.4297 169.979 17.2444 170.424 17.1137C170.87 16.9831 171.404 16.9177 172.03 16.9177C172.799 16.9177 173.454 17.0417 173.995 17.2924C174.536 17.5431 174.879 17.9177 175.024 18.4177C175.335 19.4884 175.636 20.5431 175.926 21.5777C176.214 22.6151 176.478 23.5737 176.718 24.4537C176.959 25.3351 177.17 26.1204 177.35 26.8111C177.53 27.5017 177.668 28.0377 177.764 28.4177H177.944C178.28 26.5377 178.606 24.5671 178.918 22.5071C179.231 20.4471 179.519 18.3577 179.784 16.2377C180.168 16.0244 180.578 15.8631 181.011 15.7564C181.443 15.6484 181.876 15.5951 182.31 15.5951C183.054 15.5951 183.672 15.7564 184.167 16.0777C184.659 16.3991 184.906 16.9537 184.906 17.7391C184.906 18.0964 184.839 18.6564 184.707 19.4177C184.575 20.1791 184.406 21.0364 184.203 21.9897C183.998 22.9417 183.763 23.9484 183.499 25.0071C183.235 26.0671 182.971 27.0857 182.706 28.0617C182.44 29.0377 182.183 29.9311 181.93 30.7404C181.678 31.5511 181.467 32.1684 181.299 32.5977C181.035 32.8604 180.59 33.0684 179.966 33.2231C179.339 33.3777 178.667 33.4551 177.944 33.4551C176.118 33.4551 175.047 33.0151 174.735 32.1337C174.567 31.6577 174.362 31.0737 174.122 30.3831C173.882 29.6924 173.635 28.9364 173.383 28.1151C173.13 27.2937 172.883 26.4364 172.643 25.5431C172.402 24.6511 172.198 23.7751 172.03 22.9177Z" fill="#1D1D1B"/>
</svg>
